<svg width="95" height="95" viewBox="0 0 95 95" fill="none" xmlns="http://www.w3.org/2000/svg">
<g clip-path="url(#clip0_147_269)">
<path d="M94.4882 0H0V94.4882H94.4882V0Z" fill="#808080"/>
<path d="M94.4878 5.76807H5.76807V94.4878H94.4878V5.76807Z" fill="#C6C6C6"/>
<path fill-rule="evenodd" clip-rule="evenodd" d="M11.6685 52.5875L11.1012 50.1448L11.6685 47.6685H47.6685V11.6685L50.113 11.1923L52.5875 11.6685V47.6685H88.5879L88.9467 50.1392L88.5879 52.5875H52.5875V88.5879L50.2477 89.0133L47.6685 88.5879V52.5875H11.6685Z" fill="black" stroke="black" stroke-width="0.288"/>
<path d="M30.7743 34.416C32.9286 34.416 34.6749 32.6697 34.6749 30.5154C34.6749 28.3612 32.9286 26.6149 30.7743 26.6149C28.6201 26.6149 26.8738 28.3612 26.8738 30.5154C26.8738 32.6697 28.6201 34.416 30.7743 34.416Z" fill="black" stroke="black" stroke-width="0.288"/>
<path fill-rule="evenodd" clip-rule="evenodd" d="M26.4771 77.0108L24.367 75.8117L23.2452 73.779L46.8963 50.1283L23.2452 26.4775L24.6006 24.4373L26.4771 23.2456L50.1279 46.8963L73.779 23.2452L75.823 24.4607L77.0108 26.4771L53.3597 50.1283L77.0108 73.7793L75.9009 75.8834L73.779 77.0113L50.1279 53.3601L26.4771 77.0108Z" fill="black" stroke="black" stroke-width="0.288"/>
<path d="M50.331 26.6827C52.4852 26.6827 54.2315 24.9364 54.2315 22.7822C54.2315 20.6279 52.4852 18.8816 50.331 18.8816C48.1768 18.8816 46.4304 20.6279 46.4304 22.7822C46.4304 24.9364 48.1768 26.6827 50.331 26.6827Z" fill="black" stroke="black" stroke-width="0.288"/>
<path d="M50.1283 76.5134C64.9474 76.5134 76.9607 64.5001 76.9607 49.681C76.9607 34.8619 64.9474 22.8486 50.1283 22.8486C35.3092 22.8486 23.2959 34.8619 23.2959 49.681C23.2959 64.5001 35.3092 76.5134 50.1283 76.5134Z" fill="url(#paint0_radial_147_269)"/>
<path d="M68.7237 35.461C70.8779 35.461 72.6242 33.7147 72.6242 31.5605C72.6242 29.4063 70.8779 27.6599 68.7237 27.6599C66.5695 27.6599 64.8231 29.4063 64.8231 31.5605C64.8231 33.7147 66.5695 35.461 68.7237 35.461Z" fill="black" stroke="black" stroke-width="0.288"/>
<path d="M31.4014 72.6168C33.5556 72.6168 35.302 70.8705 35.302 68.7162C35.302 66.562 33.5556 64.8157 31.4014 64.8157C29.2472 64.8157 27.5009 66.562 27.5009 68.7162C27.5009 70.8705 29.2472 72.6168 31.4014 72.6168Z" fill="black" stroke="black" stroke-width="0.288"/>
<path d="M68.7237 72.6168C70.8779 72.6168 72.6242 70.8705 72.6242 68.7162C72.6242 66.562 70.8779 64.8157 68.7237 64.8157C66.5695 64.8157 64.8231 66.562 64.8231 68.7162C64.8231 70.8705 66.5695 72.6168 68.7237 72.6168Z" fill="black" stroke="black" stroke-width="0.288"/>
<path d="M45.4037 49.8885C47.4011 49.8885 49.0204 48.2693 49.0204 46.2719C49.0204 44.2745 47.4011 42.6553 45.4037 42.6553C43.4063 42.6553 41.7871 44.2745 41.7871 46.2719C41.7871 48.2693 43.4063 49.8885 45.4037 49.8885Z" fill="white"/>
<line x1="8.93934" y1="91.4535" x2="88.4535" y2="11.9394" stroke="#E63535" stroke-width="3"/>
<line x1="10.0607" y1="9.93934" x2="89.5748" y2="89.4535" stroke="#E63535" stroke-width="3"/>
</g>
<defs>
<radialGradient id="paint0_radial_147_269" cx="0" cy="0" r="1" gradientUnits="userSpaceOnUse" gradientTransform="translate(44.7617 45.3879) scale(13.7083)">
<stop stop-color="white"/>
<stop offset="0.129412" stop-color="#E5E5E1"/>
<stop offset="0.290196" stop-color="#CCC8C8"/>
<stop offset="0.439216" stop-color="#B2B4B4"/>
<stop offset="0.74902" stop-color="#464D43"/>
<stop offset="1"/>
</radialGradient>
<clipPath id="clip0_147_269">
<rect width="94.4882" height="94.4882" fill="white"/>
</clipPath>
</defs>
</svg>
