<svg width="95" height="95" viewBox="0 0 95 95" fill="none" xmlns="http://www.w3.org/2000/svg">
<g clip-path="url(#clip0_134_238)">
<path d="M94.4882 0H0V94.4882H94.4882V0Z" fill="#CCCCCC"/>
<path fill-rule="evenodd" clip-rule="evenodd" d="M0 0H94.4882L60.9033 60.9033L0 94.4882V0Z" fill="white"/>
<path fill-rule="evenodd" clip-rule="evenodd" d="M94.4882 0V94.4882H0L94.4882 0Z" fill="#808080"/>
<path d="M83.0181 11.4701H11.4701V83.0181H83.0181V11.4701Z" fill="#C6C6C6"/>
<path d="M54.7654 43.4154H49.2488V63.2919H54.7654V43.4154Z" fill="black" stroke="black" stroke-width="0.288"/>
<path d="M58.0456 59.3571H39.5418C37.7923 59.3571 36.3741 60.7753 36.3741 62.5247V66.2657C36.3741 68.0151 37.7923 69.4333 39.5418 69.4333H58.0456C59.795 69.4333 61.2132 68.0151 61.2132 66.2657V62.5247C61.2132 60.7753 59.795 59.3571 58.0456 59.3571Z" fill="black"/>
<path d="M69.0035 65.8484H28.8528C26.9984 65.8484 25.4951 67.3517 25.4951 69.2061V74.5458C25.4951 76.4002 26.9984 77.9035 28.8528 77.9035H69.0035C70.8579 77.9035 72.3612 76.4002 72.3612 74.5458V69.2061C72.3612 67.3517 70.8579 65.8484 69.0035 65.8484Z" fill="black"/>
<path fill-rule="evenodd" clip-rule="evenodd" d="M55.2381 17.1099V49.1368C49.7975 36.4928 27.7644 48.3643 21.5134 23.8419C21.5134 23.8419 28.6855 25.96 36.7487 22.1045C44.8119 18.249 50.779 19.3425 55.2381 17.1099Z" fill="url(#paint0_linear_134_238)"/>
<rect x="15" y="15" width="65" height="64" fill="#C6C6C6"/>
<path d="M41.8864 61.6364V61.2955C41.9242 57.678 42.303 54.7992 43.0227 52.6591C43.7424 50.5189 44.7652 48.786 46.0909 47.4602C47.4167 46.1345 49.0076 44.9129 50.8636 43.7955C51.9811 43.1136 52.9848 42.3087 53.875 41.3807C54.7652 40.4337 55.4659 39.3447 55.9773 38.1136C56.5076 36.8826 56.7727 35.5189 56.7727 34.0227C56.7727 32.1667 56.3371 30.5568 55.4659 29.1932C54.5947 27.8295 53.4299 26.7784 51.9716 26.0398C50.5133 25.3011 48.8939 24.9318 47.1136 24.9318C45.5606 24.9318 44.0644 25.2538 42.625 25.8977C41.1856 26.5417 39.983 27.5549 39.017 28.9375C38.0511 30.3201 37.4924 32.1288 37.3409 34.3636H30.1818C30.3333 31.1439 31.1667 28.3883 32.6818 26.0966C34.2159 23.8049 36.233 22.053 38.733 20.8409C41.2519 19.6288 44.0455 19.0227 47.1136 19.0227C50.447 19.0227 53.3447 19.6856 55.8068 21.0114C58.2879 22.3371 60.2008 24.1553 61.5455 26.4659C62.9091 28.7765 63.5909 31.4091 63.5909 34.3636C63.5909 36.447 63.2689 38.3314 62.625 40.017C62 41.7027 61.0909 43.2083 59.8977 44.5341C58.7235 45.8598 57.303 47.0341 55.6364 48.0568C53.9697 49.0985 52.6345 50.197 51.6307 51.3523C50.6269 52.4886 49.8977 53.8428 49.4432 55.4148C48.9886 56.9867 48.7424 58.947 48.7045 61.2955V61.6364H41.8864ZM45.5227 78.4545C44.1212 78.4545 42.9186 77.9527 41.9148 76.9489C40.911 75.9451 40.4091 74.7424 40.4091 73.3409C40.4091 71.9394 40.911 70.7367 41.9148 69.733C42.9186 68.7292 44.1212 68.2273 45.5227 68.2273C46.9242 68.2273 48.1269 68.7292 49.1307 69.733C50.1345 70.7367 50.6364 71.9394 50.6364 73.3409C50.6364 74.2689 50.3996 75.1212 49.9261 75.8977C49.4716 76.6742 48.8561 77.2992 48.0795 77.7727C47.322 78.2273 46.4697 78.4545 45.5227 78.4545Z" fill="black"/>
</g>
<defs>
<linearGradient id="paint0_linear_134_238" x1="26.5263" y1="31.0072" x2="50.2254" y2="35.2395" gradientUnits="userSpaceOnUse">
<stop stop-color="#E70030"/>
<stop offset="0.388235" stop-color="#FF4848"/>
<stop offset="0.619608" stop-color="#FF2F2F"/>
<stop offset="0.788235" stop-color="#FF1C1C"/>
<stop offset="0.968627" stop-color="#C01515"/>
<stop offset="1" stop-color="#A10D0D"/>
</linearGradient>
<clipPath id="clip0_134_238">
<rect width="94.4882" height="94.4882" fill="white"/>
</clipPath>
</defs>
</svg>
